<svg xmlns="http://www.w3.org/2000/svg" xmlns:xlink="http://www.w3.org/1999/xlink" width="40" zoomAndPan="magnify"
  viewBox="0 0 30 30.000001" height="40" preserveAspectRatio="xMidYMid meet" version="1.0">
  <defs>
    <clipPath id="ca0103605a">
      <path d="M 20 4.839844 L 28 4.839844 L 28 17 L 20 17 Z M 20 4.839844 " clip-rule="nonzero" />
    </clipPath>
    <clipPath id="193a0b60b7">
      <path d="M 20 4.839844 L 29 4.839844 L 29 18 L 20 18 Z M 20 4.839844 " clip-rule="nonzero" />
    </clipPath>
    <clipPath id="b198da45a5">
      <path d="M 24 14 L 29.515625 14 L 29.515625 18 L 24 18 Z M 24 14 " clip-rule="nonzero" />
    </clipPath>
    <clipPath id="99ec7e45b5">
      <path d="M 9 14 L 29.515625 14 L 29.515625 23 L 9 23 Z M 9 14 " clip-rule="nonzero" />
    </clipPath>
  </defs>
  <path fill="#3e7d73"
    d="M 6.242188 19.152344 C 6.242188 19.152344 -0.503906 23.59375 1.488281 24.070312 C 6.050781 25.160156 25.492188 17.261719 25.492188 17.261719 L 22.300781 7.945312 C 21.457031 5.925781 6.542969 7.332031 6.710938 10.351562 Z M 6.242188 19.152344 "
    fill-opacity="1" fill-rule="nonzero" />
  <g clip-path="url(#ca0103605a)">
    <path fill="#b03200"
      d="M 21.160156 16.421875 C 20.800781 15.8125 20.746094 14.757812 21.023438 13.765625 C 21.390625 12.460938 24.417969 8.0625 24.867188 7.492188 C 25.886719 6.183594 26.605469 6.433594 27.585938 4.839844 C 27.566406 5.945312 27.535156 6.640625 27.292969 7.199219 C 25.886719 10.4375 23.351562 16.390625 22.546875 16.308594 Z M 21.160156 16.421875 "
      fill-opacity="1" fill-rule="nonzero" />
  </g>
  <path fill="#550022"
    d="M 6.042969 18.265625 C 5.707031 18.257812 5.746094 19.914062 6.042969 19.855469 C 10.15625 19.652344 16.238281 18.613281 21.675781 17.832031 L 23.945312 16.015625 C 18.609375 16.777344 10.035156 18.316406 6.042969 18.265625 Z M 6.042969 18.265625 "
    fill-opacity="1" fill-rule="nonzero" />
  <g clip-path="url(#193a0b60b7)">
    <path stroke-linecap="butt" transform="matrix(0.534704, 0, 0, 0.534805, 1.119068, 4.838711)" fill="none"
      stroke-linejoin="miter"
      d="M 49.498161 0.00211757 C 49.498161 0.00211757 47.050838 6.342047 45.385197 9.285586 C 44.216326 11.352637 42.433799 13.032572 41.286844 15.114231 C 40.183722 17.115545 38.649579 21.439553 38.649579 21.439553 "
      stroke="#000000" stroke-width="0.265" stroke-opacity="1" stroke-miterlimit="4" />
  </g>
  <path fill="#2b0000"
    d="M 22.71875 16.421875 C 22.71875 16.6875 22.625 16.910156 22.4375 17.097656 C 22.253906 17.28125 22.027344 17.375 21.765625 17.375 C 21.503906 17.375 21.28125 17.28125 21.09375 17.097656 C 20.90625 16.910156 20.816406 16.6875 20.8125 16.425781 C 20.8125 16.164062 20.90625 15.9375 21.089844 15.753906 C 21.277344 15.566406 21.5 15.472656 21.761719 15.472656 C 22.023438 15.472656 22.25 15.5625 22.4375 15.75 C 22.621094 15.933594 22.714844 16.15625 22.71875 16.421875 "
    fill-opacity="1" fill-rule="nonzero" />
  <g clip-path="url(#b198da45a5)">
    <path fill="#146356"
      d="M 24.511719 14.445312 C 25.160156 14.3125 28.664062 13.960938 29.242188 14.183594 L 25.464844 17.261719 Z M 24.511719 14.445312 "
      fill-opacity="1" fill-rule="nonzero" />
  </g>
  <path fill="#146356"
    d="M 7.996094 9.667969 C 11.949219 7.957031 16.25 7.507812 20.714844 7.675781 C 16.191406 9.917969 12.773438 9.011719 7.996094 9.667969 Z M 7.996094 9.667969 "
    fill-opacity="1" fill-rule="nonzero" />
  <g clip-path="url(#99ec7e45b5)">
    <path fill="#146356"
      d="M 9.714844 22.804688 C 9.714844 22.804688 13.195312 20.0625 15.164062 19.082031 C 16.738281 18.296875 18.507812 17.988281 20.160156 17.398438 C 23.085938 16.359375 25.777344 14.144531 28.882812 14.128906 C 29.058594 14.128906 29.339844 14.136719 29.382812 14.308594 C 29.683594 15.523438 27.796875 17.128906 27.203125 17.355469 C 21.296875 19.597656 9.714844 22.804688 9.714844 22.804688 Z M 9.714844 22.804688 "
      fill-opacity="1" fill-rule="nonzero" />
  </g>
  <path fill="#146356"
    d="M 8.246094 11.019531 C 9.789062 10.285156 13.601562 10.765625 16.53125 10.792969 C 16.53125 10.792969 13.714844 12.355469 11.183594 12.800781 C 10.539062 12.914062 7.835938 13.820312 7.675781 13.1875 C 7.519531 12.570312 7.703125 11.355469 8.246094 11.019531 Z M 8.246094 11.019531 "
    fill-opacity="1" fill-rule="nonzero" />
</svg>