<svg xmlns="http://www.w3.org/2000/svg" xmlns:xlink="http://www.w3.org/1999/xlink" width="40" zoomAndPan="magnify" viewBox="0 0 30 37.5" height="50" preserveAspectRatio="xMidYMid meet" version="1.0"><defs><g/><clipPath id="95e848b278"><path d="M 7 10 L 28 10 L 28 37.007812 L 7 37.007812 Z M 7 10 " clip-rule="nonzero"/></clipPath></defs><g clip-path="url(#95e848b278)"><g fill="#000000" fill-opacity="1"><g transform="translate(4.882291, 37.03477)"><g><path d="M 2.5625 0 L 2.5625 -26.46875 L 12.40625 -26.46875 C 14.195312 -26.46875 15.785156 -26.140625 17.171875 -25.484375 C 18.566406 -24.835938 19.65625 -23.890625 20.4375 -22.640625 C 21.21875 -21.398438 21.609375 -19.894531 21.609375 -18.125 C 21.609375 -16.300781 21.175781 -14.75 20.3125 -13.46875 C 19.445312 -12.1875 18.28125 -11.238281 16.8125 -10.625 L 22.875 0 L 17.40625 0 L 10.90625 -11.625 L 14.03125 -9.765625 L 7.390625 -9.765625 L 7.390625 0 Z M 7.390625 -14.03125 L 12.46875 -14.03125 C 13.34375 -14.03125 14.097656 -14.203125 14.734375 -14.546875 C 15.378906 -14.890625 15.878906 -15.367188 16.234375 -15.984375 C 16.585938 -16.597656 16.765625 -17.3125 16.765625 -18.125 C 16.765625 -18.945312 16.585938 -19.660156 16.234375 -20.265625 C 15.878906 -20.867188 15.378906 -21.34375 14.734375 -21.6875 C 14.097656 -22.03125 13.34375 -22.203125 12.46875 -22.203125 L 7.390625 -22.203125 Z M 7.390625 -14.03125 "/></g></g></g></g><path fill="#146356" d="M 5.589844 12.425781 C 5.589844 12.425781 -0.253906 16.28125 1.46875 16.695312 C 5.421875 17.644531 22.261719 10.785156 22.261719 10.785156 L 19.496094 2.699219 C 18.769531 0.945312 5.847656 2.167969 5.996094 4.785156 Z M 5.589844 12.425781 " fill-opacity="1" fill-rule="nonzero"/><path fill="#b03200" d="M 18.511719 10.058594 C 18.199219 9.527344 18.152344 8.613281 18.394531 7.75 C 18.710938 6.617188 21.335938 2.800781 21.71875 2.304688 C 22.605469 1.167969 23.226562 1.382812 24.078125 0 C 24.058594 0.960938 24.03125 1.566406 23.820312 2.050781 C 22.605469 4.859375 20.410156 10.03125 19.710938 9.957031 Z M 18.511719 10.058594 " fill-opacity="1" fill-rule="nonzero"/><path fill="#550022" d="M 5.417969 11.65625 C 5.125 11.652344 5.15625 13.089844 5.417969 13.039062 C 8.980469 12.859375 14.25 11.957031 18.957031 11.28125 L 20.925781 9.703125 C 16.300781 10.367188 8.875 11.699219 5.417969 11.65625 Z M 5.417969 11.65625 " fill-opacity="1" fill-rule="nonzero"/><path stroke-linecap="butt" transform="matrix(0.463164, 0, 0, 0.464325, 1.1509, 0.000000986842)" fill="none" stroke-linejoin="miter" d="M 49.501273 -0.00000212533 C 49.501273 -0.00000212533 47.055462 6.343209 45.385563 9.28767 C 44.21326 11.348793 42.433722 13.031343 41.286721 15.109291 C 40.181889 17.111525 38.646932 21.444089 38.646932 21.444089 " stroke="#000000" stroke-width="0.265" stroke-opacity="1" stroke-miterlimit="4"/><path fill="#2b0000" d="M 19.859375 10.058594 C 19.859375 10.285156 19.777344 10.480469 19.617188 10.640625 C 19.457031 10.804688 19.261719 10.882812 19.035156 10.882812 C 18.808594 10.882812 18.613281 10.804688 18.453125 10.644531 C 18.292969 10.480469 18.210938 10.289062 18.210938 10.058594 C 18.210938 9.832031 18.289062 9.636719 18.449219 9.476562 C 18.609375 9.3125 18.804688 9.234375 19.03125 9.230469 C 19.261719 9.230469 19.453125 9.3125 19.617188 9.472656 C 19.777344 9.632812 19.859375 9.828125 19.859375 10.054688 " fill-opacity="1" fill-rule="nonzero"/><path fill="#374837" d="M 21.414062 8.339844 C 21.972656 8.222656 25.007812 7.917969 25.507812 8.113281 L 22.242188 10.785156 Z M 21.414062 8.339844 " fill-opacity="1" fill-rule="nonzero"/><path fill="#374837" d="M 7.109375 4.191406 C 10.535156 2.707031 14.257812 2.316406 18.125 2.464844 C 14.207031 4.410156 11.246094 3.625 7.109375 4.191406 Z M 7.109375 4.191406 " fill-opacity="1" fill-rule="nonzero"/><path fill="#374837" d="M 8.597656 15.597656 C 8.597656 15.597656 11.613281 13.214844 13.316406 12.363281 C 14.679688 11.683594 16.210938 11.417969 17.644531 10.90625 C 20.179688 10.003906 22.511719 8.078125 25.199219 8.066406 C 25.351562 8.066406 25.59375 8.074219 25.632812 8.222656 C 25.894531 9.277344 24.257812 10.671875 23.742188 10.867188 C 18.628906 12.8125 8.597656 15.597656 8.597656 15.597656 Z M 8.597656 15.597656 " fill-opacity="1" fill-rule="nonzero"/><path fill="#374837" d="M 7.324219 5.367188 C 8.664062 4.730469 11.964844 5.144531 14.5 5.171875 C 14.5 5.171875 12.0625 6.527344 9.867188 6.910156 C 9.3125 7.011719 6.96875 7.796875 6.832031 7.25 C 6.695312 6.710938 6.851562 5.660156 7.324219 5.367188 Z M 7.324219 5.367188 " fill-opacity="1" fill-rule="nonzero"/></svg>