<svg xmlns="http://www.w3.org/2000/svg" xmlns:xlink="http://www.w3.org/1999/xlink" width="177" zoomAndPan="magnify" height="37" preserveAspectRatio="xMidYMid meet" version="1.0" style=""><rect id="backgroundrect" width="100%" height="100%" x="0" y="0" fill="none" stroke="none"/><defs><g id="svg_1"/><clipPath id="cccdcdc4e2"><path d="M 128.5625 16.578125 L 145.371094 16.578125 L 145.371094 33.386719 L 128.5625 33.386719 Z M 128.5625 16.578125 " clip-rule="nonzero" id="svg_2"/></clipPath><clipPath id="f77598ddcc"><path d="M 136.886719 16.578125 C 132.289062 16.578125 128.5625 20.324219 128.5625 24.941406 C 128.5625 29.5625 132.289062 33.304688 136.886719 33.304688 C 141.484375 33.304688 145.214844 29.5625 145.214844 24.941406 C 145.214844 20.324219 141.484375 16.578125 136.886719 16.578125 " clip-rule="nonzero" id="svg_3"/></clipPath><clipPath id="60044ec491"><path d="M 128.5625 20.28125 L 145.371094 20.28125 L 145.371094 37.007812 L 128.5625 37.007812 Z M 128.5625 20.28125 " clip-rule="nonzero" id="svg_4"/></clipPath><clipPath id="5a1fceff50"><path d="M 136.886719 20.28125 C 132.289062 20.28125 128.5625 24.023438 128.5625 28.644531 C 128.5625 33.261719 132.289062 37.007812 136.886719 37.007812 C 141.484375 37.007812 145.214844 33.261719 145.214844 28.644531 C 145.214844 24.023438 141.484375 20.28125 136.886719 20.28125 " clip-rule="nonzero" id="svg_5"/></clipPath><clipPath id="619122e776"><path d="M 18 2.8125 L 24 2.8125 L 24 12 L 18 12 Z M 18 2.8125 " clip-rule="nonzero" id="svg_6"/></clipPath><clipPath id="dede7b9813"><path d="M 18 2.8125 L 25 2.8125 L 25 12 L 18 12 Z M 18 2.8125 " clip-rule="nonzero" id="svg_7"/></clipPath></defs><g class="currentLayer" style=""><title>Layer 1</title><g fill="#000000" fill-opacity="1" id="svg_14" class=""><g id="svg_15"><g id="svg_16"><path d="M9.202456951141357,32.56578826904297 L9.202456951141357,11.253288269042969 L17.124331951141357,11.253288269042969 C18.569644951141356,11.253288269042969 19.850894951141356,11.518913269042969 20.968081951141357,12.050163269042969 C22.081362951141358,12.57360026904297 22.952456951141357,13.331413269042969 23.577456951141357,14.331413269042969 C24.21026895114136,15.331413269042969 24.530581951141357,16.546257269042968 24.530581951141357,17.97203826904297 C24.530581951141357,19.44078826904297 24.17901895114136,20.69078826904297 23.483706951141357,21.72203826904297 C22.796206951141357,22.75328826904297 21.858706951141357,23.51891326904297 20.671206951141357,24.01891326904297 L25.561831951141357,32.56578826904297 L21.155581951141357,32.56578826904297 L15.921206951141357,23.20641326904297 L18.436831951141357,24.69078826904297 L13.093081951141357,24.69078826904297 L13.093081951141357,32.56578826904297 zM13.093081951141357,21.26891326904297 L17.186831951141357,21.26891326904297 C17.882144951141356,21.26891326904297 18.487612951141358,21.13610026904297 18.999331951141357,20.86266326904297 C19.518862951141358,20.58141326904297 19.921206951141357,20.19078826904297 20.202456951141357,19.69078826904297 C20.49151895114136,19.19078826904297 20.639956951141357,18.620476269042967 20.639956951141357,17.97203826904297 C20.639956951141357,17.307976269042967 20.49151895114136,16.733757269042968 20.202456951141357,16.25328826904297 C19.921206951141357,15.765007269042968 19.518862951141358,15.38610026904297 18.999331951141357,15.112663269042969 C18.487612951141358,14.831413269042969 17.882144951141356,14.690788269042969 17.186831951141357,14.690788269042969 L13.093081951141357,14.690788269042969 zM13.093081951141357,21.26891326904297 " id="svg_17"/></g></g></g><g fill="#000000" fill-opacity="1" id="svg_18" class=""><g id="svg_19"><g id="svg_20"><path d="M35.4110050201416,32.90953826904297 C33.8797550201416,32.90953826904297 32.4891300201416,32.55797576904297 31.2391300201416,31.84703826904297 C29.9891300201416,31.140007269042968 28.993036020141602,30.17516326904297 28.2547550201416,28.95641326904297 C27.524286020141602,27.73766326904297 27.1610050201416,26.34703826904297 27.1610050201416,24.78453826904297 C27.1610050201416,23.22203826904297 27.524286020141602,21.83141326904297 28.2547550201416,20.61266326904297 C28.993036020141602,19.38610026904297 29.9813180201416,18.421257269042968 31.2235050201416,17.72203826904297 C32.4617860201416,17.015007269042968 33.8563180201416,16.65953826904297 35.4110050201416,16.65953826904297 C36.9305360201416,16.65953826904297 38.3094420201416,17.015007269042968 39.5516300201416,17.72203826904297 C40.7899110201416,18.421257269042968 41.7742860201416,19.37828826904297 42.5047550201416,20.59703826904297 C43.2430360201416,21.807976269042967 43.6141300201416,23.202507269042968 43.6141300201416,24.78453826904297 C43.6141300201416,26.34703826904297 43.2391300201416,27.73766326904297 42.4891300201416,28.95641326904297 C41.7469420201416,30.17516326904297 40.7586610201416,31.140007269042968 39.5203800201416,31.84703826904297 C38.2781920201416,32.55797576904297 36.9110050201416,32.90953826904297 35.4110050201416,32.90953826904297 zM35.4110050201416,29.47203826904297 C36.2430360201416,29.47203826904297 36.9774110201416,29.276726269042967 37.6141300201416,28.87828826904297 C38.2586610201416,28.47203826904297 38.7625680201416,27.91735026904297 39.1297550201416,27.20641326904297 C39.5047550201416,26.48766326904297 39.6922550201416,25.682976269042967 39.6922550201416,24.78453826904297 C39.6922550201416,23.870476269042967 39.5047550201416,23.061882269042968 39.1297550201416,22.36266326904297 C38.7625680201416,21.66735026904297 38.2586610201416,21.11266326904297 37.6141300201416,20.70641326904297 C36.9774110201416,20.30016326904297 36.2430360201416,20.09703826904297 35.4110050201416,20.09703826904297 C34.5438180201416,20.09703826904297 33.7899110201416,20.30016326904297 33.1453800201416,20.70641326904297 C32.4969420201416,21.11266326904297 31.9891300201416,21.66735026904297 31.6141300201416,22.36266326904297 C31.2391300201416,23.061882269042968 31.0516300201416,23.870476269042967 31.0516300201416,24.78453826904297 C31.0516300201416,25.682976269042967 31.2391300201416,26.48766326904297 31.6141300201416,27.20641326904297 C31.9891300201416,27.91735026904297 32.4969420201416,28.47203826904297 33.1453800201416,28.87828826904297 C33.7899110201416,29.276726269042967 34.5438180201416,29.47203826904297 35.4110050201416,29.47203826904297 zM35.4110050201416,29.47203826904297 " id="svg_21"/></g></g></g><g fill="#000000" fill-opacity="1" id="svg_22" class=""><g id="svg_23"><g id="svg_24"><path d="M54.940185546875,32.90953826904297 C53.815185546875,32.90953826904297 52.776122546875,32.68297626904297 51.830810546875,32.23766326904297 C50.893310546875,31.79235026904297 50.147216546875,31.14391326904297 49.596435546875,30.30016326904297 L49.971435546875,29.56578826904297 L49.971435546875,32.56578826904297 L46.455810546875,32.56578826904297 L46.455810546875,10.909538269042969 L50.205810546875,10.909538269042969 L50.205810546875,20.09703826904297 L49.627685546875,19.31578826904297 C50.158935546875,18.483757269042968 50.881591546875,17.83141326904297 51.799560546875,17.36266326904297 C52.713622546875,16.89391326904297 53.772216546875,16.65953826904297 54.971435546875,16.65953826904297 C56.440185546875,16.65953826904297 57.760498546875,17.026726269042967 58.940185546875,17.75328826904297 C60.127685546875,18.47203826904297 61.069091546875,19.44078826904297 61.768310546875,20.65953826904297 C62.463622546875,21.87828826904297 62.815185546875,23.25328826904297 62.815185546875,24.78453826904297 C62.815185546875,26.296257269042968 62.471435546875,27.671257269042968 61.783935546875,28.90953826904297 C61.096435546875,30.151726269042967 60.158935546875,31.12828826904297 58.971435546875,31.84703826904297 C57.791748546875,32.55797576904297 56.447998546875,32.90953826904297 54.940185546875,32.90953826904297 zM54.518310546875,29.47203826904297 C55.369872546875,29.47203826904297 56.131591546875,29.276726269042967 56.799560546875,28.87828826904297 C57.475341546875,28.47203826904297 57.994872546875,27.921257269042968 58.362060546875,27.22203826904297 C58.737060546875,26.515007269042968 58.924560546875,25.702507269042968 58.924560546875,24.78453826904297 C58.924560546875,23.870476269042967 58.737060546875,23.061882269042968 58.362060546875,22.36266326904297 C57.994872546875,21.66735026904297 57.475341546875,21.11266326904297 56.799560546875,20.70641326904297 C56.131591546875,20.30016326904297 55.369872546875,20.09703826904297 54.518310546875,20.09703826904297 C53.694091546875,20.09703826904297 52.955810546875,20.30016326904297 52.299560546875,20.70641326904297 C51.643310546875,21.10485026904297 51.127685546875,21.65953826904297 50.752685546875,22.37828826904297 C50.385498546875,23.089226269042967 50.205810546875,23.890007269042968 50.205810546875,24.78453826904297 C50.205810546875,25.702507269042968 50.385498546875,26.515007269042968 50.752685546875,27.22203826904297 C51.127685546875,27.921257269042968 51.643310546875,28.47203826904297 52.299560546875,28.87828826904297 C52.955810546875,29.276726269042967 53.694091546875,29.47203826904297 54.518310546875,29.47203826904297 zM54.518310546875,29.47203826904297 " id="svg_25"/></g></g></g><g fill="#000000" fill-opacity="1" id="svg_26" class=""><g id="svg_27"><g id="svg_28"><path d="M65.68220138549805,32.56578826904297 L65.68220138549805,17.00328826904297 L69.43220138549805,17.00328826904297 L69.43220138549805,32.56578826904297 zM65.68220138549805,15.253288269042969 L65.68220138549805,11.253288269042969 L69.43220138549805,11.253288269042969 L69.43220138549805,15.253288269042969 zM65.68220138549805,15.253288269042969 " id="svg_29"/></g></g></g><g fill="#000000" fill-opacity="1" id="svg_30" class=""><g id="svg_31"><g id="svg_32"><path d="M72.89210510253906,32.56578826904297 L72.89210510253906,17.00328826904297 L76.40773010253906,17.00328826904297 L76.40773010253906,20.06578826904297 L76.12648010253906,19.51891326904297 C76.47804310253906,18.58141326904297 77.07179310253906,17.874382269042968 77.90773010253906,17.39391326904297 C78.73976110253906,16.905632269042968 79.70851110253906,16.65953826904297 80.81398010253906,16.65953826904297 C81.95851110253906,16.65953826904297 82.97413610253906,16.90953826904297 83.86085510253906,17.40953826904297 C84.74366710253906,17.901726269042967 85.43116710253906,18.589226269042967 85.92335510253906,19.47203826904297 C86.42335510253906,20.358757269042968 86.67335510253906,21.38610026904297 86.67335510253906,22.55016326904297 L86.67335510253906,32.56578826904297 L82.92335510253906,32.56578826904297 L82.92335510253906,23.44078826904297 C82.92335510253906,22.75328826904297 82.78663610253906,22.16735026904297 82.51710510253906,21.67516326904297 C82.25538610253906,21.17516326904297 81.89210510253906,20.79235026904297 81.42335510253906,20.51891326904297 C80.95460510253906,20.23766326904297 80.40773010253906,20.09703826904297 79.78273010253906,20.09703826904297 C79.16554310253906,20.09703826904297 78.61866710253906,20.23766326904297 78.14210510253906,20.51891326904297 C77.67335510253906,20.79235026904297 77.30226110253906,21.17516326904297 77.03273010253906,21.67516326904297 C76.77101110253906,22.16735026904297 76.64210510253906,22.75328826904297 76.64210510253906,23.44078826904297 L76.64210510253906,32.56578826904297 zM72.89210510253906,32.56578826904297 " id="svg_33"/></g></g></g><g fill="#000000" fill-opacity="1" id="svg_34" class=""><g id="svg_35"><g id="svg_36"/></g></g><g fill="#000000" fill-opacity="1" id="svg_37" class=""><g id="svg_38"><g id="svg_39"><path d="M95.2634506225586,32.56578826904297 L95.2634506225586,11.253288269042969 L104.2478256225586,11.253288269042969 C105.6540756225586,11.253288269042969 106.8572006225586,11.499382269042968 107.8572006225586,11.987663269042969 C108.8650126225586,12.468132269042968 109.6423566225586,13.155632269042968 110.1853256225586,14.050163269042969 C110.72438862255859,14.936882269042968 110.9978256225586,16.00328826904297 110.9978256225586,17.25328826904297 C110.9978256225586,18.233757269042968 110.7322006225586,19.151726269042967 110.2009506225586,20.00328826904297 C109.6775126225586,20.84703826904297 108.8454816225586,21.546257269042968 107.7009506225586,22.09703826904297 L107.7009506225586,20.30016326904297 C108.7517316225586,20.69860026904297 109.5798566225586,21.19078826904297 110.1853256225586,21.78453826904297 C110.7986066225586,22.370476269042967 111.2322006225586,23.026726269042967 111.4822006225586,23.75328826904297 C111.7322006225586,24.483757269042968 111.8572006225586,25.249382269042968 111.8572006225586,26.05016326904297 C111.8572006225586,28.08141326904297 111.1853256225586,29.67516326904297 109.8415756225586,30.83141326904297 C108.4978256225586,31.98766326904297 106.63063862255859,32.56578826904297 104.2478256225586,32.56578826904297 zM99.1540756225586,29.12828826904297 L104.6384506225586,29.12828826904297 C105.6462626225586,29.12828826904297 106.4548566225586,28.84703826904297 107.0603256225586,28.28453826904297 C107.66188862255859,27.72203826904297 107.9665756225586,26.97985026904297 107.9665756225586,26.05016326904297 C107.9665756225586,25.11266326904297 107.66188862255859,24.358757269042968 107.0603256225586,23.78453826904297 C106.4548566225586,23.214226269042967 105.6462626225586,22.92516326904297 104.6384506225586,22.92516326904297 L99.1540756225586,22.92516326904297 zM99.1540756225586,19.51891326904297 L104.4509506225586,19.51891326904297 C105.2400126225586,19.51891326904297 105.8767316225586,19.28453826904297 106.3572006225586,18.81578826904297 C106.8337626225586,18.34703826904297 107.0759506225586,17.745476269042967 107.0759506225586,17.00328826904297 C107.0759506225586,16.265007269042968 106.8337626225586,15.675163269042969 106.3572006225586,15.237663269042969 C105.8767316225586,14.79235026904297 105.2400126225586,14.565788269042969 104.4509506225586,14.565788269042969 L99.1540756225586,14.565788269042969 zM99.1540756225586,19.51891326904297 " id="svg_40"/></g></g></g><g fill="#000000" fill-opacity="1" id="svg_41" class=""><g id="svg_42"><g id="svg_43"><path d="M122.33031463623047,32.90953826904297 C120.79906463623047,32.90953826904297 119.40843963623047,32.55797576904297 118.15843963623047,31.84703826904297 C116.90843963623047,31.140007269042968 115.91234563623047,30.17516326904297 115.17406463623047,28.95641326904297 C114.44359563623047,27.73766326904297 114.08031463623047,26.34703826904297 114.08031463623047,24.78453826904297 C114.08031463623047,23.22203826904297 114.44359563623047,21.83141326904297 115.17406463623047,20.61266326904297 C115.91234563623047,19.38610026904297 116.90062763623047,18.421257269042968 118.14281463623047,17.72203826904297 C119.38109563623047,17.015007269042968 120.77562763623047,16.65953826904297 122.33031463623047,16.65953826904297 C123.84984563623047,16.65953826904297 125.22875163623047,17.015007269042968 126.47093963623047,17.72203826904297 C127.70922063623047,18.421257269042968 128.69359563623047,19.37828826904297 129.42406463623047,20.59703826904297 C130.16234563623047,21.807976269042967 130.53343963623047,23.202507269042968 130.53343963623047,24.78453826904297 C130.53343963623047,26.34703826904297 130.15843963623047,27.73766326904297 129.40843963623047,28.95641326904297 C128.66625163623047,30.17516326904297 127.67797063623047,31.140007269042968 126.43968963623047,31.84703826904297 C125.19750163623047,32.55797576904297 123.83031463623047,32.90953826904297 122.33031463623047,32.90953826904297 zM122.33031463623047,29.47203826904297 C123.16234563623047,29.47203826904297 123.89672063623047,29.276726269042967 124.53343963623047,28.87828826904297 C125.17797063623047,28.47203826904297 125.68187763623047,27.91735026904297 126.04906463623047,27.20641326904297 C126.42406463623047,26.48766326904297 126.61156463623047,25.682976269042967 126.61156463623047,24.78453826904297 C126.61156463623047,23.870476269042967 126.42406463623047,23.061882269042968 126.04906463623047,22.36266326904297 C125.68187763623047,21.66735026904297 125.17797063623047,21.11266326904297 124.53343963623047,20.70641326904297 C123.89672063623047,20.30016326904297 123.16234563623047,20.09703826904297 122.33031463623047,20.09703826904297 C121.46312763623047,20.09703826904297 120.70922063623047,20.30016326904297 120.06468963623047,20.70641326904297 C119.41625163623047,21.11266326904297 118.90843963623047,21.66735026904297 118.53343963623047,22.36266326904297 C118.15843963623047,23.061882269042968 117.97093963623047,23.870476269042967 117.97093963623047,24.78453826904297 C117.97093963623047,25.682976269042967 118.15843963623047,26.48766326904297 118.53343963623047,27.20641326904297 C118.90843963623047,27.91735026904297 119.41625163623047,28.47203826904297 120.06468963623047,28.87828826904297 C120.70922063623047,29.276726269042967 121.46312763623047,29.47203826904297 122.33031463623047,29.47203826904297 zM122.33031463623047,29.47203826904297 " id="svg_44"/></g></g></g><g fill="#000000" fill-opacity="1" id="svg_45" class=""><g id="svg_46"><g id="svg_47"/></g></g><g fill="#000000" fill-opacity="1" id="svg_48" class=""><g id="svg_49"><g id="svg_50"/></g></g><g fill="#000000" fill-opacity="1" id="svg_51" class=""><g id="svg_52"><g id="svg_53"><path d="M151.15701293945312,32.90953826904297 C149.62576293945312,32.90953826904297 148.23513793945312,32.55797576904297 146.98513793945312,31.84703826904297 C145.73513793945312,31.140007269042968 144.73904393945313,30.17516326904297 144.00076293945312,28.95641326904297 C143.27029393945313,27.73766326904297 142.90701293945312,26.34703826904297 142.90701293945312,24.78453826904297 C142.90701293945312,23.22203826904297 143.27029393945313,21.83141326904297 144.00076293945312,20.61266326904297 C144.73904393945313,19.38610026904297 145.72732593945312,18.421257269042968 146.96951293945312,17.72203826904297 C148.20779393945313,17.015007269042968 149.60232593945312,16.65953826904297 151.15701293945312,16.65953826904297 C152.67654393945313,16.65953826904297 154.05544993945313,17.015007269042968 155.29763793945312,17.72203826904297 C156.53591893945313,18.421257269042968 157.52029393945313,19.37828826904297 158.25076293945312,20.59703826904297 C158.98904393945313,21.807976269042967 159.36013793945312,23.202507269042968 159.36013793945312,24.78453826904297 C159.36013793945312,26.34703826904297 158.98513793945312,27.73766326904297 158.23513793945312,28.95641326904297 C157.49294993945313,30.17516326904297 156.50466893945313,31.140007269042968 155.26638793945312,31.84703826904297 C154.02419993945313,32.55797576904297 152.65701293945312,32.90953826904297 151.15701293945312,32.90953826904297 zM151.15701293945312,29.47203826904297 C151.98904393945313,29.47203826904297 152.72341893945313,29.276726269042967 153.36013793945312,28.87828826904297 C154.00466893945313,28.47203826904297 154.50857593945312,27.91735026904297 154.87576293945312,27.20641326904297 C155.25076293945312,26.48766326904297 155.43826293945312,25.682976269042967 155.43826293945312,24.78453826904297 C155.43826293945312,23.870476269042967 155.25076293945312,23.061882269042968 154.87576293945312,22.36266326904297 C154.50857593945312,21.66735026904297 154.00466893945313,21.11266326904297 153.36013793945312,20.70641326904297 C152.72341893945313,20.30016326904297 151.98904393945313,20.09703826904297 151.15701293945312,20.09703826904297 C150.28982593945312,20.09703826904297 149.53591893945313,20.30016326904297 148.89138793945312,20.70641326904297 C148.24294993945313,21.11266326904297 147.73513793945312,21.66735026904297 147.36013793945312,22.36266326904297 C146.98513793945312,23.061882269042968 146.79763793945312,23.870476269042967 146.79763793945312,24.78453826904297 C146.79763793945312,25.682976269042967 146.98513793945312,26.48766326904297 147.36013793945312,27.20641326904297 C147.73513793945312,27.91735026904297 148.24294993945313,28.47203826904297 148.89138793945312,28.87828826904297 C149.53591893945313,29.276726269042967 150.28982593945312,29.47203826904297 151.15701293945312,29.47203826904297 zM151.15701293945312,29.47203826904297 " id="svg_54"/></g></g></g><g fill="#000000" fill-opacity="1" id="svg_55" class=""><g id="svg_56"><g id="svg_57"><path d="M162.2018280029297,32.56578826904297 L162.2018280029297,10.909538269042969 L165.9518280029297,10.909538269042969 L165.9518280029297,25.09703826904297 L164.5143280029297,24.67516326904297 L171.8424530029297,17.00328826904297 L176.4987030029297,17.00328826904297 L170.7487030029297,23.26891326904297 L176.6237030029297,32.56578826904297 L172.3268280029297,32.56578826904297 L167.2330780029297,24.50328826904297 L169.4674530029297,24.03453826904297 L164.7643280029297,29.08141326904297 L165.9518280029297,26.78453826904297 L165.9518280029297,32.56578826904297 zM162.2018280029297,32.56578826904297 " id="svg_58"/></g></g></g><g fill="#000000" fill-opacity="1" id="svg_59" class=""><g id="svg_60"><g id="svg_61"><path d="M136.90049743652344,32.554237365722656 C136.11924743652344,32.554237365722656 135.40440343652344,32.378456115722656 134.75987243652344,32.022987365722656 C134.12315343652344,31.659706365722656 133.61924743652344,31.163612365722656 133.24424743652344,30.538612365722656 C132.86924743652344,29.913612365722656 132.68174743652344,29.206581365722656 132.68174743652344,28.413612365722656 C132.68174743652344,27.612831365722656 132.86924743652344,26.897987365722656 133.24424743652344,26.272987365722656 C133.61924743652344,25.647987365722656 134.12315343652344,25.159706365722656 134.75987243652344,24.804237365722656 C135.39268543652344,24.440956365722656 136.10752843652344,24.257362365722656 136.90049743652344,24.257362365722656 C137.68174743652344,24.257362365722656 138.38487243652344,24.440956365722656 139.00987243652344,24.804237365722656 C139.64268543652344,25.159706365722656 140.15049743652344,25.647987365722656 140.52549743652344,26.272987365722656 C140.90049743652344,26.890174365722658 141.08799743652344,27.601112365722656 141.08799743652344,28.413612365722656 C141.08799743652344,29.206581365722656 140.89268543652344,29.913612365722656 140.50987243652344,30.538612365722656 C140.13487243652344,31.163612365722656 139.62705943652344,31.659706365722656 138.99424743652344,32.022987365722656 C138.36924743652344,32.378456115722656 137.67002843652344,32.554237365722656 136.90049743652344,32.554237365722656 zM136.90049743652344,30.804237365722656 C137.32627843652344,30.804237365722656 137.70127843652344,30.706581365722656 138.02549743652344,30.507362365722656 C138.35752843652344,30.300331365722656 138.61924743652344,30.015174365722658 138.80674743652344,29.647987365722656 C138.99424743652344,29.284706365722656 139.08799743652344,28.874550365722655 139.08799743652344,28.413612365722656 C139.08799743652344,27.944862365722656 138.99424743652344,27.534706365722656 138.80674743652344,27.179237365722656 C138.61924743652344,26.827674365722658 138.35752843652344,26.546424365722658 138.02549743652344,26.335487365722656 C137.70127843652344,26.116737365722656 137.32627843652344,26.007362365722656 136.90049743652344,26.007362365722656 C136.46299743652344,26.007362365722656 136.07627843652344,26.116737365722656 135.74424743652344,26.335487365722656 C135.40830943652344,26.546424365722658 135.15049743652344,26.827674365722658 134.96299743652344,27.179237365722656 C134.77549743652344,27.534706365722656 134.68174743652344,27.944862365722656 134.68174743652344,28.413612365722656 C134.68174743652344,28.874550365722655 134.77549743652344,29.284706365722656 134.96299743652344,29.647987365722656 C135.15049743652344,30.015174365722658 135.40830943652344,30.300331365722656 135.74424743652344,30.507362365722656 C136.07627843652344,30.706581365722656 136.46299743652344,30.804237365722656 136.90049743652344,30.804237365722656 zM136.90049743652344,30.804237365722656 " id="svg_62"/></g></g></g><path fill="#166356" d="M8.109375,13.238281 C8.109375,13.238281 3.1992190000000003,16.472656 4.6484380000000005,16.820312 C7.972656,17.617188 22.125,11.863281 22.125,11.863281 L19.800781,5.074219 C19.191406,3.6054690000000003 8.328125,4.628906 8.453125,6.828125 zM8.109375,13.238281 " fill-opacity="1" fill-rule="nonzero" id="svg_63" class=""/><g clip-path="url(#619122e776)" id="svg_64" class=""><path fill="#b03200" d="M 18.972656 11.25 C 18.710938 10.804688 18.671875 10.039062 18.875 9.3125 C 19.140625 8.363281 21.347656 5.160156 21.671875 4.746094 C 22.414062 3.792969 22.9375 3.972656 23.652344 2.8125 C 23.636719 3.617188 23.613281 4.125 23.4375 4.53125 C 22.414062 6.890625 20.566406 11.226562 19.980469 11.167969 Z M 18.972656 11.25 " fill-opacity="1" fill-rule="nonzero" id="svg_65"/></g><path fill="#550022" d="M7.964844,12.59375 C7.722656,12.585938 7.746094,13.792969 7.964844,13.75 C10.960938,13.601562 15.390625,12.84375 19.347656,12.277344 L21,10.953125 C17.113281,11.507812 10.871094,12.628906 7.964844,12.59375 zM7.964844,12.59375 " fill-opacity="1" fill-rule="nonzero" id="svg_66" class=""/><g clip-path="url(#dede7b9813)" id="svg_67" class=""><path stroke-linecap="butt" fill="none" stroke-linejoin="miter" d="M23.652337037480002,2.812500130345253 C23.652337037480002,2.812500130345253 22.699212471800003,5.281250408279 22.05077487794,6.42968822596 C21.5937438362,7.234375771006 20.90233790126,7.890626008187 20.453119355960002,8.699219890437 C20.02343205176,9.480470191344999 19.4257760741,11.164064130141 19.4257760741,11.164064130141 " stroke="#000000" stroke-width="0.265" stroke-opacity="1" stroke-miterlimit="4" id="svg_68"/></g><path fill="#2b0000" d="M20.105469,11.25 C20.105469,11.441406 20.039062,11.605469 19.902344,11.742188 C19.769531,11.875 19.605469,11.945312 19.414062,11.945312 C19.222656,11.945312 19.058594,11.875 18.925781,11.742188 C18.789062,11.605469 18.722656,11.441406 18.71875,11.253906 C18.71875,11.0625 18.789062,10.898438 18.921875,10.761719 C19.058594,10.625 19.21875,10.558594 19.410156,10.558594 C19.601562,10.558594 19.765625,10.625 19.902344,10.757812 C20.035156,10.894531 20.105469,11.058594 20.105469,11.25 " fill-opacity="1" fill-rule="nonzero" id="svg_69" class=""/><path fill="#374837" d="M21.414062,9.8125 C21.882812,9.710938 24.433594,9.457031 24.855469,9.617188 L22.109375,11.863281 zM21.414062,9.8125 " fill-opacity="1" fill-rule="nonzero" id="svg_70" class=""/><path fill="#374837" d="M9.386719,6.328125 C12.265625,5.082031 15.394531,4.757812 18.648438,4.878906 C15.355469,6.511719 12.867188,5.8515619999999995 9.386719,6.328125 zM9.386719,6.328125 " fill-opacity="1" fill-rule="nonzero" id="svg_71" class=""/><path fill="#374837" d="M10.640625,15.898438 C10.640625,15.898438 13.171875,13.898438 14.605469,13.1875 C15.753906,12.613281 17.039062,12.390625 18.246094,11.960938 C20.375,11.203125 22.335938,9.589844 24.59375,9.578125 C24.722656,9.578125 24.925781,9.585938 24.957031,9.710938 C25.179688,10.597656 23.804688,11.765625 23.371094,11.929688 C19.074219,13.5625 10.640625,15.898438 10.640625,15.898438 zM10.640625,15.898438 " fill-opacity="1" fill-rule="nonzero" id="svg_72" class=""/><path fill="#374837" d="M9.566406,7.316406 C10.695312,6.78125 13.46875,7.128906 15.601562,7.152344 C15.601562,7.152344 13.550781,8.289062 11.707031,8.609375 C11.238281,8.691406 9.269531,9.355469 9.152344,8.894531 C9.039062,8.441406 9.171875,7.558594 9.566406,7.316406 zM9.566406,7.316406 " fill-opacity="1" fill-rule="nonzero" id="svg_73" class=""/><path fill="" fill-opacity="1" stroke="none" stroke-opacity="1" stroke-width="1" stroke-dasharray="none" stroke-linejoin="miter" stroke-linecap="butt" stroke-dashoffset="" fill-rule="nonzero" opacity="1" marker-start="" marker-mid="" marker-end="" id="svg_74" d="M140.27526567776454,24.897847639148516 " style="color: rgb(0, 0, 0);" class=""/><path fill="#000000" fill-opacity="1" stroke="none" stroke-opacity="1" stroke-width="1" stroke-dasharray="none" stroke-linejoin="miter" stroke-linecap="butt" stroke-dashoffset="" fill-rule="nonzero" opacity="1" marker-start="" marker-mid="" marker-end="" id="svg_77" d="M123.9499981219952,21.68076970027043 " style="color: rgb(0, 0, 0);"/><path fill="#000000" fill-opacity="1" stroke="none" stroke-opacity="1" stroke-width="1" stroke-dasharray="none" stroke-linejoin="miter" stroke-linecap="butt" stroke-dashoffset="" fill-rule="nonzero" opacity="1" marker-start="" marker-mid="" marker-end="" id="svg_79" d="M137.60384427584134,13.200000469501202 " style="color: rgb(0, 0, 0);"/><path fill="#000000" fill-opacity="1" stroke="none" stroke-opacity="1" stroke-width="1" stroke-dasharray="none" stroke-linejoin="miter" stroke-linecap="butt" stroke-dashoffset="" fill-rule="nonzero" opacity="1" marker-start="" marker-mid="" marker-end="" id="svg_83" d="M130.41153358524812,23.39615398123859 " style="color: rgb(0, 0, 0);"/><path fill="#000000" fill-opacity="1" stroke="none" stroke-opacity="1" stroke-width="1" stroke-dasharray="none" stroke-linejoin="miter" stroke-linecap="butt" stroke-dashoffset="" fill-rule="nonzero" opacity="1" marker-start="" marker-mid="" marker-end="" id="svg_87" d="M134.60384121508557,22.56923091663763 " style="color: rgb(0, 0, 0);"/><path fill="#000000" fill-opacity="1" stroke="none" stroke-opacity="1" stroke-width="1" stroke-dasharray="none" stroke-linejoin="miter" stroke-linecap="butt" stroke-dashoffset="" fill-rule="nonzero" opacity="1" marker-start="" marker-mid="" marker-end="" id="svg_89" d="M133.19999508215835,22.261538613530295 " style="color: rgb(0, 0, 0);"/><path fill="#000000" fill-opacity="1" stroke="none" stroke-opacity="1" stroke-width="1" stroke-dasharray="none" stroke-linejoin="miter" stroke-linecap="butt" stroke-dashoffset="" fill-rule="nonzero" opacity="1" marker-start="" marker-mid="" marker-end="" id="svg_91" d="M127.02344475832052,24.005127996660878 L128.13494832465173,24.180069606918615 L129.11568156845175,24.087995017627396 L129.86290689706126,23.535547481880073 L130.82028934934223,22.95240841636901 L132.19798604896607,22.399960880621684 L133.3188240418804,22.047008288338677 L134.6965207415042,21.770784520465007 L135.77065715138042,21.66336416629192 L136.42447931391374,21.632672636528184 L137.07830147644708,21.632672636528184 L137.80217601353758,21.648018401410052 L138.61945371670424,21.709401460937528 L139.46008221138996,21.80147605022875 L140.37076308063283,22.016316758574934 L141.23474236683762,22.246503231802983 L142.07537086152334,22.553418529440385 L142.70584223253763,22.82964229731405 L143.19620885443766,23.07517453542397 L143.59317231026145,23.305361008652024 L143.96678497456625,23.489510187234462 L144.52720397102337,23.888500074163083 L145.6480419639377,23.765733955108118 L146.301864126471,23.2132864193608 L145.9749530452044,22.73756770802283 L145.5546387978615,22.215811702039243 L145.6013403808996,21.893550639519976 L144.7840626777329,21.12626239542647 L143.850031016971,20.45104874062418 L142.7291930240567,19.88325543999499 L141.42154869899002,19.34615366912954 L140.44081545518998,19.085275666137747 C140.45014968169954,19.094483307636757 139.46941645251363,18.879642602491955 139.46941645251363,18.894988367145153 C139.46941645251363,18.91033413179835 138.37192926747218,18.726184955959948 138.36259500999472,18.716977308972858 C138.37192926747218,18.726184955959948 137.32114366477296,18.664801897347147 137.31180939163758,18.655594249445382 C137.32114366477296,18.664801897347147 136.22365647973157,18.680147662000348 136.2143221902423,18.67094001432725 C136.22365647973157,18.680147662000348 135.33632641523002,18.741530720613152 135.3269921125185,18.732323073854733 C135.33632641523002,18.741530720613152 134.72920584478152,18.83360530853236 134.72920584478152,18.83360530853236 C134.72920584478152,18.83360530853236 133.9586297361354,18.956371425757954 133.94929541289468,18.947163782200914 C133.9586297361354,18.956371425757954 133.11800125397608,19.15586636624956 133.10866691820894,19.146658725665226 C133.11800125397608,19.15586636624956 132.39412672767216,19.370707071394367 132.38479238111844,19.361499434011407 C132.39412672767216,19.370707071394367 131.7169537837104,19.631585070498776 131.70761942706608,19.622377437003202 C131.7169537837104,19.631585070498776 130.9930792574065,19.95384612821598 130.98374488997558,19.944638499522473 C130.9930792574065,19.95384612821598 130.40930947812913,20.260761421279987 130.3999751019994,20.25155379715987 C130.40930947812913,20.260761421279987 129.73213653416744,20.659751302263196 129.722802147947,20.650543684088493 C129.73213653416744,20.659751302263196 129.21841912840333,21.043395418593207 129.20908473452795,21.03418780613525 C129.21841912840333,21.043395418593207 128.82145567849477,21.365656476310416 128.81212127870413,21.356448868654518 C128.82145567849477,21.365656476310416 128.44784301975724,21.718609063334025 128.43850861439935,21.709401460937528 C128.44784301975724,21.718609063334025 127.91077482282213,22.28640235550244 127.90144040946126,22.277194761566722 C127.91077482282213,22.28640235550244 126.69653368192525,23.391297410532868 126.68719925047077,23.38208983306137 C126.69653368192525,23.391297410532868 135.21957245937452,23.253185528654065 127.02344475832052,24.005127996660878 z" style="color: rgb(0, 0, 0);" class=""/><path fill="#000000" fill-opacity="1" stroke="none" stroke-opacity="1" stroke-width="1" stroke-dasharray="none" stroke-linejoin="miter" stroke-linecap="butt" stroke-dashoffset="" fill-rule="nonzero" opacity="1" marker-start="" marker-mid="" marker-end="" id="svg_93" d="M133.50768738526568,20.396154025942074 " style="color: rgb(0, 0, 0);"/></g></svg>